{
  "accessors": [
    {
      "bufferView": 2,
      "componentType": 5126,
      "count": 102,
      "max": [
        3.812377691268921,
        6.976410388946533,
        -0.0
      ],
      "min": [
        -3.9031262397766113,
        2.271409749984741,
        -0.10000000149011612
      ],
      "type": "VEC3"
    },
    {
      "bufferView": 2,
      "byteOffset": 1224,
      "componentType": 5126,
      "count": 102,
      "max": [
        1.0,
        0.9997012615203857,
        1.0
      ],
      "min": [
        -1.0,
        -1.0,
        -1.0
      ],
      "type": "VEC3"
    },
    {
      "bufferView": 1,
      "componentType": 5126,
      "count": 102,
      "max": [
        1.0,
        1.0
      ],
      "min": [
        0.0,
        0.0
      ],
      "type": "VEC2"
    },
    {
      "bufferView": 0,
      "componentType": 5125,
      "count": 276,
      "type": "SCALAR"
    },
    {
      "bufferView": 2,
      "byteOffset": 2448,
      "componentType": 5126,
      "count": 13604,
      "max": [
        4.001051902770996,
        2.363854169845581,
        0.009999999776482582
      ],
      "min": [
        -3.9443368911743164,
        -2.582397937774658,
        -0.2123498022556305
      ],
      "type": "VEC3"
    },
    {
      "bufferView": 2,
      "byteOffset": 165696,
      "componentType": 5126,
      "count": 13604,
      "max": [
        1.0,
        1.0,
        1.0
      ],
      "min": [
        -1.0,
        -1.0,
        -1.0
      ],
      "type": "VEC3"
    },
    {
      "bufferView": 1,
      "byteOffset": 816,
      "componentType": 5126,
      "count": 13604,
      "max": [
        1.0,
        1.0
      ],
      "min": [
        0.0,
        0.0
      ],
      "type": "VEC2"
    },
    {
      "bufferView": 0,
      "byteOffset": 1104,
      "componentType": 5125,
      "count": 51258,
      "type": "SCALAR"
    }
  ],
  "asset": {
    "extras": {
      "author": "sl8k3r (https://sketchfab.com/sl8k3r)",
      "license": "CC-BY-4.0 (http://creativecommons.org/licenses/by/4.0/)",
      "source": "https://sketchfab.com/3d-models/bank-card-4bdf88866ed6462480bf84744271fe4b",
      "title": "Bank Card"
    },
    "generator": "Sketchfab-12.68.0",
    "version": "2.0"
  },
  "bufferViews": [
    {
      "buffer": 0,
      "byteLength": 206136,
      "name": "floatBufferViews",
      "target": 34963
    },
    {
      "buffer": 0,
      "byteLength": 109648,
      "byteOffset": 206136,
      "byteStride": 8,
      "name": "floatBufferViews",
      "target": 34962
    },
    {
      "buffer": 0,
      "byteLength": 328944,
      "byteOffset": 315784,
      "byteStride": 12,
      "name": "floatBufferViews",
      "target": 34962
    }
  ],
  "buffers": [
    {
      "byteLength": 644728,
      "uri": "scene.bin"
    }
  ],
  "extensionsRequired": [
    "KHR_materials_pbrSpecularGlossiness"
  ],
  "extensionsUsed": [
    "KHR_materials_pbrSpecularGlossiness"
  ],
  "materials": [
    {
      "alphaMode": "BLEND",
      "doubleSided": true,
      "extensions": {
        "KHR_materials_pbrSpecularGlossiness": {
          "diffuseFactor": [
            0.5805862928148755,
            0.5116388272396656,
            0.8648245820318268,
            0.3553734756097561
          ],
          "glossinessFactor": 0.04756828460010884,
          "specularFactor": [
            0.0,
            0.0,
            0.0
          ]
        }
      },
      "name": "Mat.1"
    },
    {
      "doubleSided": true,
      "extensions": {
        "KHR_materials_pbrSpecularGlossiness": {
          "diffuseFactor": [
            0.377863142032291,
            0.29974018686056214,
            0.8193024440314856,
            1.0
          ],
          "glossinessFactor": 0.7090320121951219,
          "specularFactor": [
            0.06979097711484615,
            0.008198199377556918,
            0.04916408800664015
          ]
        }
      },
      "name": "Mat.2"
    }
  ],
  "meshes": [
    {
      "name": "Extrude_2_Mat.1_0",
      "primitives": [
        {
          "attributes": {
            "NORMAL": 1,
            "POSITION": 0,
            "TEXCOORD_0": 2
          },
          "indices": 3,
          "material": 0,
          "mode": 4
        }
      ]
    },
    {
      "name": "Extrude_4_Mat.2_0",
      "primitives": [
        {
          "attributes": {
            "NORMAL": 5,
            "POSITION": 4,
            "TEXCOORD_0": 6
          },
          "indices": 7,
          "material": 1,
          "mode": 4
        }
      ]
    }
  ],
  "nodes": [
    {
      "children": [
        1
      ],
      "matrix": [
        1.0,
        0.0,
        0.0,
        0.0,
        0.0,
        2.220446049250313e-16,
        -1.0,
        0.0,
        0.0,
        1.0,
        2.220446049250313e-16,
        0.0,
        0.0,
        0.0,
        0.0,
        1.0
      ],
      "name": "Sketchfab_model"
    },
    {
      "children": [
        2
      ],
      "matrix": [
        1.0,
        0.0,
        0.0,
        0.0,
        0.0,
        0.0,
        1.0,
        0.0,
        0.0,
        -1.0,
        0.0,
        0.0,
        0.0,
        0.0,
        0.0,
        1.0
      ],
      "name": "0b03b1e7d3db429aa8d550db864ac2fa.fbx"
    },
    {
      "children": [
        3,
        5,
        8,
        11,
        15
      ],
      "name": "RootNode"
    },
    {
      "children": [
        4
      ],
      "matrix": [
        -0.04172945908946302,
        -0.11825562572762352,
        -0.9921059717731111,
        0.0,
        -0.004969614155821929,
        0.9929831856500735,
        -0.11815115721555175,
        0.0,
        0.9991165873806935,
        5.551115123125783e-17,
        -0.042024336053730904,
        0.0,
        4.8644843101501465,
        6.925420761108398,
        21.253957748413086,
        1.0
      ],
      "name": "CINEMA_4D_Editor"
    },
    {
      "name": "Object_4"
    },
    {
      "children": [
        6
      ],
      "matrix": [
        1.0,
        0.0,
        0.0,
        0.0,
        0.0,
        2.220446049250313e-16,
        1.0,
        0.0,
        0.0,
        -1.0,
        2.220446049250313e-16,
        0.0,
        0.0,
        0.0,
        -26.84438133239746,
        1.0
      ],
      "name": "Light_1"
    },
    {
      "children": [
        7
      ],
      "matrix": [
        1.0,
        0.0,
        0.0,
        0.0,
        0.0,
        2.220446049250313e-16,
        1.0,
        0.0,
        0.0,
        -1.0,
        2.220446049250313e-16,
        0.0,
        0.0,
        0.0,
        0.0,
        1.0
      ],
      "name": "Object_6"
    },
    {
      "name": "Object_7"
    },
    {
      "children": [
        9
      ],
      "matrix": [
        0.9628163067752137,
        0.0,
        0.27015691626855975,
        0.0,
        -0.19042269014919783,
        0.7093468647257075,
        0.6786502962352197,
        0.0,
        -0.19163496153906837,
        -0.7048595785713696,
        0.6829707285177828,
        0.0,
        -9.903731346130371,
        36.89256286621094,
        35.296058654785156,
        1.0
      ],
      "name": "Light"
    },
    {
      "children": [
        10
      ],
      "matrix": [
        1.0,
        0.0,
        0.0,
        0.0,
        0.0,
        2.220446049250313e-16,
        1.0,
        0.0,
        0.0,
        -1.0,
        2.220446049250313e-16,
        0.0,
        0.0,
        0.0,
        0.0,
        1.0
      ],
      "name": "Object_9"
    },
    {
      "name": "Object_10"
    },
    {
      "children": [
        12
      ],
      "matrix": [
        1.0,
        0.0,
        0.0,
        0.0,
        0.0,
        1.0,
        0.0,
        0.0,
        0.0,
        0.0,
        1.0,
        0.0,
        2.5837066173553467,
        -1.075689673423767,
        0.5670314431190491,
        1.0
      ],
      "name": "BankCard1"
    },
    {
      "children": [
        13
      ],
      "matrix": [
        1.0,
        0.0,
        0.0,
        0.0,
        0.0,
        1.0,
        0.0,
        0.0,
        0.0,
        0.0,
        1.0,
        0.0,
        1.657830834388733,
        1.1567093133926392,
        -0.6221370697021484,
        1.0
      ],
      "name": "Extrude"
    },
    {
      "children": [
        14
      ],
      "name": "Extrude_2"
    },
    {
      "mesh": 0,
      "name": "Extrude_2_Mat.1_0"
    },
    {
      "children": [
        16
      ],
      "matrix": [
        1.0,
        0.0,
        0.0,
        0.0,
        0.0,
        1.0,
        0.0,
        0.0,
        0.0,
        0.0,
        1.0,
        0.0,
        4.2430644035339355,
        1.9942229986190796,
        0.0,
        1.0
      ],
      "name": "BankCard1_2"
    },
    {
      "children": [
        17
      ],
      "matrix": [
        1.0,
        0.0,
        0.0,
        0.0,
        0.0,
        1.0,
        0.0,
        0.0,
        0.0,
        0.0,
        1.0,
        0.0,
        0.0,
        2.763779401779175,
        0.0,
        1.0
      ],
      "name": "Extrude_3"
    },
    {
      "children": [
        18
      ],
      "name": "Extrude_4"
    },
    {
      "mesh": 1,
      "name": "Extrude_4_Mat.2_0"
    }
  ],
  "scene": 0,
  "scenes": [
    {
      "name": "Sketchfab_Scene",
      "nodes": [
        0
      ]
    }
  ]
}
